<svg width="166" height="29" viewBox="0 0 166 29" fill="none" xmlns="http://www.w3.org/2000/svg">
<path d="M46.9103 23V6.02112H53.0757C55.0184 6.02112 56.6561 6.35829 57.9887 7.03263C59.3374 7.69091 60.3569 8.65425 61.0473 9.92265C61.7377 11.175 62.0829 12.7003 62.0829 14.4985C62.0829 16.2807 61.7377 17.806 61.0473 19.0744C60.3569 20.3428 59.3374 21.3142 57.9887 21.9885C56.6561 22.6628 55.0184 23 53.0757 23H46.9103ZM50.0171 20.4231H52.883C54.9382 20.4231 56.4634 19.9334 57.4589 18.954C58.4543 17.9746 58.9521 16.4894 58.9521 14.4985C58.9521 12.4916 58.4543 11.0064 57.4589 10.0431C56.4634 9.06367 54.9382 8.57397 52.883 8.57397H50.0171V20.4231ZM70.8907 23.2408C68.8517 23.2408 67.2541 22.6789 66.0981 21.555C64.9421 20.4311 64.3641 18.8897 64.3641 16.931C64.3641 15.6626 64.613 14.5547 65.1107 13.6074C65.6084 12.6601 66.2988 11.9216 67.1819 11.3917C68.081 10.8619 69.1246 10.597 70.3127 10.597C71.4848 10.597 72.4642 10.8458 73.2509 11.3436C74.0376 11.8413 74.6317 12.5397 75.0331 13.4388C75.4505 14.338 75.6593 15.3896 75.6593 16.5938V17.3885H66.7965V15.799H73.5158L73.1064 16.1362C73.1064 15.0123 72.8656 14.1533 72.3839 13.5593C71.9183 12.9652 71.2359 12.6682 70.3368 12.6682C69.3414 12.6682 68.5707 13.0214 68.0248 13.7278C67.4949 14.4343 67.23 15.4217 67.23 16.6901V17.0032C67.23 18.3198 67.5511 19.3072 68.1934 19.9655C68.8517 20.6077 69.7749 20.9288 70.963 20.9288C71.6534 20.9288 72.2956 20.8405 72.8897 20.6639C73.4998 20.4712 74.0778 20.1662 74.6237 19.7487L75.5148 21.7717C74.9368 22.2374 74.2464 22.5986 73.4436 22.8555C72.6408 23.1124 71.7898 23.2408 70.8907 23.2408ZM78.4494 23V6.02112H85.8912C87.7376 6.02112 89.1585 6.41448 90.154 7.20121C91.1494 7.97188 91.6471 9.04761 91.6471 10.4284C91.6471 11.456 91.3421 12.323 90.732 13.0294C90.1219 13.7359 89.2789 14.2095 88.2032 14.4504V14.0891C89.4395 14.2657 90.3948 14.7153 91.0691 15.4378C91.7595 16.1442 92.1047 17.0835 92.1047 18.2555C92.1047 19.7648 91.5829 20.9368 90.5393 21.7717C89.4957 22.5906 88.0426 23 86.1802 23H78.4494ZM81.4357 20.6398H85.8189C86.8626 20.6398 87.6734 20.4471 88.2514 20.0618C88.8294 19.6604 89.1184 19.0102 89.1184 18.111C89.1184 17.1959 88.8294 16.5456 88.2514 16.1603C87.6734 15.7589 86.8626 15.5582 85.8189 15.5582H81.4357V20.6398ZM81.4357 13.2221H85.3613C86.4692 13.2221 87.288 13.0214 87.8179 12.62C88.3638 12.2026 88.6367 11.5924 88.6367 10.7897C88.6367 9.98687 88.3638 9.38478 87.8179 8.98339C87.288 8.56594 86.4692 8.35722 85.3613 8.35722H81.4357V13.2221ZM94.8124 23V13.9446C94.8124 13.4308 94.7964 12.909 94.7643 12.3792C94.7482 11.8493 94.7081 11.3355 94.6438 10.8378H97.558L97.8951 14.1613H97.4135C97.574 13.3586 97.8389 12.6923 98.2082 12.1624C98.5935 11.6326 99.0592 11.2392 99.6051 10.9823C100.151 10.7254 100.745 10.597 101.387 10.597C101.676 10.597 101.909 10.613 102.086 10.6452C102.262 10.6612 102.439 10.7013 102.615 10.7656L102.591 13.4148C102.286 13.2863 102.021 13.206 101.797 13.1739C101.588 13.1418 101.323 13.1258 101.002 13.1258C100.312 13.1258 99.7255 13.2703 99.2438 13.5593C98.7782 13.8483 98.425 14.2497 98.1841 14.7634C97.9593 15.2772 97.847 15.8633 97.847 16.5215V23H94.8124ZM104.291 23V10.8378H107.302V23H104.291ZM104.123 8.54989V5.6117H107.47V8.54989H104.123ZM115.291 23.2408C114.231 23.2408 113.292 22.992 112.473 22.4942C111.671 21.9805 111.044 21.2499 110.595 20.3026C110.145 19.3554 109.921 18.2234 109.921 16.9069C109.921 15.5903 110.145 14.4664 110.595 13.5352C111.044 12.5879 111.671 11.8654 112.473 11.3677C113.292 10.8539 114.231 10.597 115.291 10.597C116.303 10.597 117.194 10.8458 117.964 11.3436C118.751 11.8252 119.273 12.4835 119.53 13.3184H119.217V5.27453H122.227V23H119.265V20.4231H119.554C119.297 21.2901 118.775 21.9805 117.988 22.4942C117.218 22.992 116.319 23.2408 115.291 23.2408ZM116.134 20.9288C117.081 20.9288 117.844 20.5997 118.422 19.9414C119 19.2671 119.289 18.2555 119.289 16.9069C119.289 15.5582 119 14.5547 118.422 13.8964C117.844 13.2381 117.081 12.909 116.134 12.909C115.187 12.909 114.416 13.2381 113.822 13.8964C113.244 14.5547 112.955 15.5582 112.955 16.9069C112.955 18.2555 113.244 19.2671 113.822 19.9414C114.416 20.5997 115.187 20.9288 116.134 20.9288ZM131.141 28.3947C130.017 28.3947 128.997 28.2743 128.082 28.0335C127.183 27.7926 126.38 27.4233 125.674 26.9256L126.324 24.7581C126.79 25.0632 127.271 25.312 127.769 25.5047C128.267 25.6974 128.781 25.8419 129.311 25.9382C129.84 26.0345 130.378 26.0827 130.924 26.0827C132.048 26.0827 132.883 25.8017 133.429 25.2398C133.991 24.6939 134.272 23.9071 134.272 22.8796V19.9655H134.513C134.256 20.8004 133.734 21.4667 132.947 21.9644C132.177 22.4621 131.285 22.711 130.274 22.711C129.182 22.711 128.227 22.4702 127.408 21.9885C126.605 21.4908 125.979 20.7843 125.529 19.8691C125.08 18.954 124.855 17.8782 124.855 16.642C124.855 15.4057 125.08 14.338 125.529 13.4388C125.979 12.5237 126.605 11.8252 127.408 11.3436C128.227 10.8458 129.182 10.597 130.274 10.597C131.301 10.597 132.193 10.8458 132.947 11.3436C133.718 11.8252 134.232 12.4835 134.489 13.3184L134.272 13.1739L134.513 10.8378H137.427C137.362 11.3355 137.314 11.8413 137.282 12.3551C137.25 12.8689 137.234 13.3746 137.234 13.8723V22.5183C137.234 24.429 136.712 25.882 135.669 26.8774C134.641 27.889 133.132 28.3947 131.141 28.3947ZM131.093 20.399C132.056 20.399 132.819 20.0779 133.381 19.4356C133.959 18.7774 134.248 17.8461 134.248 16.642C134.248 15.4378 133.959 14.5146 133.381 13.8723C132.819 13.2301 132.056 12.909 131.093 12.909C130.113 12.909 129.335 13.2301 128.757 13.8723C128.179 14.5146 127.89 15.4378 127.89 16.642C127.89 17.8461 128.179 18.7774 128.757 19.4356C129.335 20.0779 130.113 20.399 131.093 20.399ZM146.363 23.2408C144.324 23.2408 142.727 22.6789 141.571 21.555C140.415 20.4311 139.837 18.8897 139.837 16.931C139.837 15.6626 140.086 14.5547 140.583 13.6074C141.081 12.6601 141.771 11.9216 142.655 11.3917C143.554 10.8619 144.597 10.597 145.785 10.597C146.957 10.597 147.937 10.8458 148.724 11.3436C149.51 11.8413 150.104 12.5397 150.506 13.4388C150.923 14.338 151.132 15.3896 151.132 16.5938V17.3885H142.269V15.799H148.988L148.579 16.1362C148.579 15.0123 148.338 14.1533 147.857 13.5593C147.391 12.9652 146.709 12.6682 145.809 12.6682C144.814 12.6682 144.043 13.0214 143.497 13.7278C142.968 14.4343 142.703 15.4217 142.703 16.6901V17.0032C142.703 18.3198 143.024 19.3072 143.666 19.9655C144.324 20.6077 145.248 20.9288 146.436 20.9288C147.126 20.9288 147.768 20.8405 148.362 20.6639C148.972 20.4712 149.55 20.1662 150.096 19.7487L150.987 21.7717C150.409 22.2374 149.719 22.5986 148.916 22.8555C148.113 23.1124 147.263 23.2408 146.363 23.2408ZM158.016 23.2408C156.973 23.2408 156.009 23.1204 155.126 22.8796C154.259 22.6227 153.529 22.2695 152.935 21.8199L153.778 19.7969C154.388 20.2143 155.062 20.5355 155.801 20.7602C156.539 20.985 157.286 21.0974 158.04 21.0974C158.843 21.0974 159.437 20.9609 159.823 20.688C160.224 20.415 160.425 20.0458 160.425 19.5801C160.425 19.2109 160.296 18.9219 160.039 18.7131C159.798 18.4884 159.405 18.3198 158.859 18.2074L156.451 17.7498C155.423 17.525 154.637 17.1397 154.091 16.5938C153.561 16.0479 153.296 15.3334 153.296 14.4504C153.296 13.6957 153.497 13.0294 153.898 12.4514C154.315 11.8734 154.901 11.4239 155.656 11.1027C156.427 10.7656 157.326 10.597 158.353 10.597C159.253 10.597 160.095 10.7174 160.882 10.9582C161.685 11.1991 162.359 11.5603 162.905 12.042L162.038 13.9928C161.54 13.5914 160.97 13.2783 160.328 13.0535C159.686 12.8287 159.06 12.7163 158.45 12.7163C157.615 12.7163 157.005 12.8689 156.619 13.1739C156.234 13.4629 156.041 13.8402 156.041 14.3058C156.041 14.6591 156.154 14.9561 156.379 15.1969C156.619 15.4217 156.989 15.5903 157.486 15.7027L159.895 16.1603C160.97 16.369 161.781 16.7383 162.327 17.2681C162.889 17.7819 163.17 18.4884 163.17 19.3875C163.17 20.1903 162.953 20.8807 162.52 21.4587C162.086 22.0367 161.484 22.4782 160.714 22.7832C159.943 23.0883 159.044 23.2408 158.016 23.2408Z" fill="#142438"/>
<path d="M13.5452 26.9827V20.4601C9.93968 20.4601 7.02262 17.5431 7.02262 13.9375H0.5C0.5 21.1486 6.33412 26.9827 13.5452 26.9827Z" fill="#0071FF"/>
<path d="M13.5453 26.9827V20.4601C17.1508 20.4601 20.0679 17.5431 20.0679 13.9375H26.5905C26.5905 21.1486 20.7564 26.9827 13.5453 26.9827Z" fill="#142438"/>
<path d="M19.9447 0.890625V7.41324C23.5503 7.41324 26.4673 10.3303 26.4673 13.9359H32.9899C32.9899 6.72475 27.1558 0.890625 19.9447 0.890625Z" fill="#0071FF"/>
<path d="M19.9447 0.890625V7.41324C16.3391 7.41324 13.422 10.3303 13.422 13.9359H6.89941C6.89941 6.72475 12.7335 0.890625 19.9447 0.890625Z" fill="#142438"/>
</svg>
