<svg width="21" height="20" viewBox="0 0 21 20" fill="none" xmlns="http://www.w3.org/2000/svg">
<path fill-rule="evenodd" clip-rule="evenodd" d="M20.5 10C20.5 15.5225 16.0225 20 10.5 20C4.9775 20 0.5 15.5225 0.5 10C0.5 4.4775 4.9775 0 10.5 0C16.0225 0 20.5 4.4775 20.5 10ZM10.8583 7.3825C9.88583 7.78667 7.94167 8.62417 5.02667 9.89417C4.55333 10.0825 4.305 10.2667 4.2825 10.4467C4.24417 10.7517 4.62583 10.8717 5.14417 11.0342C5.215 11.0567 5.28833 11.0792 5.36333 11.1042C5.87417 11.27 6.56083 11.4642 6.9175 11.4717C7.24167 11.4783 7.60333 11.345 8.0025 11.0717C10.7258 9.2325 12.1317 8.30333 12.22 8.28333C12.2825 8.26917 12.3692 8.25083 12.4275 8.30333C12.4858 8.355 12.48 8.45333 12.4742 8.48C12.4358 8.64083 10.9408 10.0317 10.1658 10.7517C9.92417 10.9758 9.75333 11.135 9.71833 11.1717C9.64 11.2525 9.56 11.33 9.48333 11.4042C9.00833 11.8608 8.65333 12.2042 9.50333 12.7642C9.91167 13.0333 10.2383 13.2558 10.5642 13.4775C10.92 13.72 11.275 13.9617 11.735 14.2633C11.8517 14.34 11.9633 14.4192 12.0725 14.4967C12.4867 14.7925 12.8592 15.0575 13.3192 15.0158C13.5858 14.9908 13.8625 14.74 14.0025 13.9908C14.3333 12.2192 14.985 8.3825 15.1358 6.80083C15.145 6.66951 15.1394 6.53757 15.1192 6.4075C15.107 6.30244 15.0559 6.20578 14.9758 6.13667C14.8567 6.03917 14.6717 6.01833 14.5883 6.02C14.2125 6.02667 13.6358 6.2275 10.8583 7.3825Z" fill="#4294F5"/>
</svg>
