<svg width="21" height="20" viewBox="0 0 21 20" fill="none" xmlns="http://www.w3.org/2000/svg">
<path d="M10.5 0C4.97768 0 0.5 4.47768 0.5 10C0.5 15.5223 4.97768 20 10.5 20C16.0223 20 20.5 15.5223 20.5 10C20.5 4.47768 16.0223 0 10.5 0ZM15.3058 7.53795C15.3125 7.64286 15.3125 7.75223 15.3125 7.85938C15.3125 11.1362 12.817 14.9107 8.2567 14.9107C6.85045 14.9107 5.54688 14.5022 4.44866 13.7991C4.64955 13.8214 4.84152 13.8304 5.04688 13.8304C6.20759 13.8304 7.27455 13.4375 8.125 12.7723C7.03571 12.75 6.12054 12.0357 5.80804 11.0536C6.18973 11.1094 6.53348 11.1094 6.92634 11.0089C6.36546 10.895 5.86133 10.5904 5.49959 10.1468C5.13785 9.70331 4.94082 9.14823 4.94196 8.57589V8.54464C5.27009 8.72991 5.65625 8.84375 6.06027 8.85938C5.72063 8.63302 5.44209 8.32636 5.24936 7.96658C5.05662 7.60681 4.95563 7.20503 4.95536 6.79688C4.95536 6.33482 5.07589 5.91295 5.29241 5.54688C5.91496 6.31325 6.69181 6.94005 7.57247 7.38653C8.45312 7.83301 9.41787 8.08918 10.404 8.13839C10.0536 6.45313 11.3125 5.08929 12.8259 5.08929C13.5402 5.08929 14.183 5.38839 14.6362 5.87054C15.1964 5.76563 15.7321 5.5558 16.2098 5.27455C16.0246 5.84821 15.6362 6.33259 15.1205 6.63839C15.6205 6.58482 16.1027 6.44643 16.5491 6.25223C16.2121 6.74777 15.7902 7.1875 15.3058 7.53795Z" fill="#50BEFF"/>
</svg>
