<svg width="21" height="20" viewBox="0 0 21 20" fill="none" xmlns="http://www.w3.org/2000/svg">
<path d="M10.5 0C4.9854 0 0.5 4.4854 0.5 10C0.5 15.5146 4.9854 20 10.5 20C16.0146 20 20.5 15.5146 20.5 10C20.5 4.4854 16.0146 0 10.5 0ZM11.0012 1.4156C13.5648 1.5622 15.8222 2.8262 17.2984 4.7292C16.9088 4.7192 16.521 4.7168 16.1348 4.7226C15.4644 4.73371 14.7946 4.7692 14.1268 4.829C14.004 4.57552 13.8123 4.36173 13.5737 4.21211C13.335 4.0625 13.0591 3.9831 12.7774 3.983C12.7076 3.98301 12.6379 3.98789 12.5688 3.9976C12.0991 3.10595 11.5756 2.24369 11.0012 1.4156ZM9.7856 1.4316C10.513 2.4254 11.1436 3.4342 11.6832 4.457C11.4825 4.6711 11.349 4.93937 11.2992 5.2286C10.3662 5.4104 9.44302 5.63936 8.5332 5.9146C8.41999 5.76153 8.27867 5.63142 8.1168 5.5312C8.4942 4.1842 9.0222 2.8194 9.6972 1.4382C9.7266 1.4356 9.7562 1.4342 9.7856 1.4316ZM8.4976 1.636C7.9336 2.869 7.4836 4.0974 7.1488 5.318C6.94627 5.3423 6.75083 5.40765 6.57442 5.51006C6.39801 5.61247 6.24433 5.74978 6.1228 5.9136C5.22041 5.6258 4.30641 5.37571 3.3832 5.164C4.58814 3.39111 6.41235 2.13273 8.4976 1.636ZM16.7222 5.7196C17.1406 5.7222 17.561 5.7356 17.9836 5.7576C18.4887 6.64729 18.8299 7.62048 18.991 8.6308C17.781 8.8276 16.603 9.1002 15.4562 9.4438C15.3324 9.2905 15.1796 9.16309 15.0065 9.06885C14.8335 8.97462 14.6436 8.91541 14.4476 8.8946C14.2549 8.12713 14.02 7.37086 13.7442 6.6292C13.9922 6.41992 14.1657 6.13584 14.2386 5.8196C15.0584 5.7484 15.8858 5.7142 16.7222 5.7196ZM2.8464 6.072C3.8668 6.2966 4.8624 6.5592 5.829 6.8678C5.82906 6.8698 5.82913 6.8718 5.8292 6.8738C4.5276 7.4084 3.2478 8.0388 1.9894 8.7612C2.12401 7.82349 2.41363 6.91469 2.8464 6.072ZM11.4652 6.2088C11.5949 6.44321 11.7849 6.63863 12.0156 6.77474C12.2464 6.91085 12.5093 6.98269 12.7772 6.9828C12.7907 6.98265 12.8041 6.98231 12.8176 6.9818C13.0791 7.68195 13.3018 8.39597 13.4848 9.1206C13.4097 9.16823 13.3389 9.22244 13.2734 9.2826C11.863 8.36338 10.3741 7.57076 8.824 6.914C8.82522 6.89695 8.82616 6.87988 8.8268 6.8628C9.6948 6.60066 10.5754 6.38238 11.4654 6.2088H11.4652ZM6.2012 7.797C6.31149 7.92243 6.44195 8.02855 6.5872 8.111C6.3408 10.0392 6.3954 11.9404 6.7714 13.8002C5.88529 14.4482 5.0316 15.1393 4.2134 15.8712C2.7784 14.3354 1.9 12.2732 1.9 10C1.9 9.9906 1.9008 9.9816 1.9008 9.9722C3.3102 9.1254 4.7428 8.3982 6.2012 7.7972V7.797ZM8.4254 7.8288C9.9533 8.47447 11.4194 9.25748 12.8058 10.1682C12.795 10.2404 12.7896 10.3132 12.7894 10.3862C12.7894 10.3893 12.7894 10.3925 12.7894 10.3956C10.9974 11.1406 9.2866 12.0716 7.655 13.1784C7.373 11.5788 7.343 9.9484 7.5536 8.2896C7.88783 8.23864 8.19503 8.07626 8.4254 7.8288ZM19.0906 9.6276C19.0958 9.751 19.1 9.875 19.1 9.9998C19.1013 11.2179 18.8434 12.4223 18.3434 13.533C17.5016 12.6366 16.6018 11.7967 15.6496 11.0186C15.7413 10.8214 15.7891 10.6067 15.7896 10.3892C16.8729 10.0664 17.9754 9.81201 19.0906 9.6276ZM13.127 11.3334C13.3429 11.5984 13.6427 11.7817 13.977 11.853C14.1958 13.8348 14.129 15.8662 13.7906 17.949C12.7471 18.38 11.629 18.6012 10.5 18.6C10.2046 18.6 9.9126 18.5852 9.625 18.5562C8.8226 17.1434 8.2432 15.7022 7.8792 14.2348C9.5448 13.0702 11.2918 12.0998 13.127 11.3336V11.3334ZM14.9632 11.7454C15.991 12.5829 16.9561 13.4944 17.8508 14.4728C17.116 15.6784 16.0963 16.685 14.8812 17.404C15.1382 15.4836 15.1692 13.5954 14.9632 11.7458V11.7454ZM7.0212 14.8564C7.3392 16.035 7.788 17.1958 8.3718 18.335C7.10768 18.0136 5.93368 17.4076 4.9394 16.5634C5.6188 15.9594 6.3124 15.3894 7.021 14.8564H7.0212Z" fill="#0071FF"/>
</svg>
